<svg width="40" height="40" viewBox="0 0 40 40" xmlns="http://www.w3.org/2000/svg">
  <defs>
    <linearGradient id="brainGradient" x1="0%" y1="0%" x2="100%" y2="100%">
      <stop offset="0%" style="stop-color:#6B46C1;stop-opacity:1" />
      <stop offset="50%" style="stop-color:#2563EB;stop-opacity:1" />
      <stop offset="100%" style="stop-color:#06B6D4;stop-opacity:1" />
    </linearGradient>
  </defs>

  <path d="M20 8c-2.5 0-4.7 1.2-6 3-1.3-1.8-3.5-3-6-3-4.4 0-8 3.6-8 8 0 2.1.8 4 2.1 5.4-.6 1.4-.9 2.9-.9 4.6 0 6.1 4.9 11 11 11s11-4.9 11-11c0-1.7-.3-3.2-.9-4.6 1.3-1.4 2.1-3.3 2.1-5.4 0-4.4-3.6-8-8-8z"
        fill="url(#brainGradient)"
        stroke="none"/>
  <!-- Neural pathways -->
  <circle cx="12" cy="18" r="1.5" fill="white" opacity="0.8"/>
  <circle cx="18" cy="22" r="1" fill="white" opacity="0.6"/>
  <circle cx="15" cy="15" r="1" fill="white" opacity="0.7"/>
  <line x1="12" y1="18" x2="15" y2="15" stroke="white" stroke-width="0.5" opacity="0.5"/>
  <line x1="15" y1="15" x2="18" y2="22" stroke="white" stroke-width="0.5" opacity="0.5"/>
</svg>
