<svg width="200" height="60" viewBox="0 0 200 60" xmlns="http://www.w3.org/2000/svg">
  <!-- Brain Icon with Gradient -->
  <defs>
    <linearGradient id="brainGradient" x1="0%" y1="0%" x2="100%" y2="100%">
      <stop offset="0%" style="stop-color:#6B46C1;stop-opacity:1" />
      <stop offset="50%" style="stop-color:#2563EB;stop-opacity:1" />
      <stop offset="100%" style="stop-color:#06B6D4;stop-opacity:1" />
    </linearGradient>
    <linearGradient id="textGradient" x1="0%" y1="0%" x2="100%" y2="0%">
      <stop offset="0%" style="stop-color:#1E3A8A;stop-opacity:1" />
      <stop offset="100%" style="stop-color:#4C1D95;stop-opacity:1" />
    </linearGradient>
  </defs>

  <!-- Brain Icon -->
  <g transform="translate(10, 10)">
    <path d="M20 8c-2.5 0-4.7 1.2-6 3-1.3-1.8-3.5-3-6-3-4.4 0-8 3.6-8 8 0 2.1.8 4 2.1 5.4-.6 1.4-.9 2.9-.9 4.6 0 6.1 4.9 11 11 11s11-4.9 11-11c0-1.7-.3-3.2-.9-4.6 1.3-1.4 2.1-3.3 2.1-5.4 0-4.4-3.6-8-8-8z"
          fill="url(#brainGradient)"
          stroke="none"/>
    <!-- Neural pathways -->
    <circle cx="12" cy="18" r="1.5" fill="white" opacity="0.8"/>
    <circle cx="18" cy="22" r="1" fill="white" opacity="0.6"/>
    <circle cx="15" cy="15" r="1" fill="white" opacity="0.7"/>
    <line x1="12" y1="18" x2="15" y2="15" stroke="white" stroke-width="0.5" opacity="0.5"/>
    <line x1="15" y1="15" x2="18" y2="22" stroke="white" stroke-width="0.5" opacity="0.5"/>
  </g>

  <!-- SpectrumCare Text -->
  <text x="50" y="25" font-family="Arial, sans-serif" font-size="18" font-weight="bold" fill="url(#textGradient)">
    SpectrumCare
  </text>
  <text x="50" y="40" font-family="Arial, sans-serif" font-size="10" fill="#6B7280">
    Comprehensive Autism Support
  </text>
</svg>
